<?xml version="1.0" encoding="UTF-8"?>
<svg version="1.1" xmlns="http://www.w3.org/2000/svg" width="320" height="311">
<path d="M0 0 C105.6 0 211.2 0 320 0 C320 102.63 320 205.26 320 311 C214.4 311 108.8 311 0 311 C0 208.37 0 105.74 0 0 Z " fill="#FDFDFD" transform="translate(0,0)"/>
<path d="M0 0 C1.16789062 0.0721875 2.33578125 0.144375 3.5390625 0.21875 C14.63067626 0.85139863 25.70379956 1.10871357 36.8125 1.125 C38.73280029 1.13176758 38.73280029 1.13176758 40.69189453 1.13867188 C46.90933117 1.12883286 52.84853495 0.85254846 59 0 C61.93861173 -0.17817857 64.86903805 -0.22921651 67.8125 -0.25 C68.93688477 -0.2809375 68.93688477 -0.2809375 70.08398438 -0.3125 C75.48987949 -0.35114804 75.48987949 -0.35114804 77.98046875 1.36328125 C79.50100759 3.80429954 79.54960164 5.18329161 79 8 C73.97453695 14.10234799 64.18469433 14.84050951 56.75 15.6875 C55.5125 15.790625 54.275 15.89375 53 16 C61.9753173 16.40540956 69.55188204 16.5333202 77.9609375 12.875 C80 12 80 12 82 12 C87.55580866 28.70842825 87.55580866 28.70842825 88 37 C88.94359375 36.94585937 89.8871875 36.89171875 90.859375 36.8359375 C95.8779107 36.84350313 100.4638469 38.22469757 105.25 39.625 C106.18223389 39.89715332 107.11446777 40.16930664 108.07495117 40.44970703 C119.02203638 43.76642629 127.532167 48.13444425 135 57 C136.65591579 60.31183158 136.74424086 63.44765708 136 67 C130.17228577 76.7920214 119.13387603 81.84993648 109 86 C107.81664062 86.49886719 106.63328125 86.99773437 105.4140625 87.51171875 C100.07486432 89.49258206 94.54551006 90.26116604 88.9375 91.125 C87.88755859 91.29386719 86.83761719 91.46273437 85.75585938 91.63671875 C82.83883104 92.1030027 79.92100452 92.559328 77 93 C75.94184082 93.17942139 74.88368164 93.35884277 73.79345703 93.54370117 C69.06165593 94.11286942 64.4137907 94.16182521 59.65234375 94.16796875 C58.15665611 94.17432091 58.15665611 94.17432091 56.63075256 94.18080139 C53.39962552 94.1906829 50.16863948 94.19072278 46.9375 94.1875 C45.28754028 94.18659363 45.28754028 94.18659363 43.60424805 94.18566895 C-27.36378691 94.07959204 -27.36378691 94.07959204 -46 77 C-50.25762331 72.61170795 -53.25541351 68.47097795 -53.5625 62.25 C-53.4057409 57.16652624 -52.01316971 54.44736695 -48.4375 50.87890625 C-38.38438787 43.12963232 -25.41588844 38.8845545 -13 37 C-12.81937012 36.30551758 -12.63874023 35.61103516 -12.45263672 34.89550781 C-5.76577845 9.44067021 -5.76577845 9.44067021 0 0 Z " fill="#252122" transform="translate(58,10)"/>
<path d="M0 0 C2.48947336 1.43155973 3.77923667 2.21134204 4.56640625 5.0234375 C4.53774836 22.27548485 -6.42443503 38.22630453 -18.09375 50.140625 C-30.45576377 62.42194677 -30.45576377 62.42194677 -41.1875 62.5 C-48.82590517 62.47030044 -53.3620611 61.42033424 -59 56 C-59.71784668 55.34741211 -59.71784668 55.34741211 -60.45019531 54.68164062 C-72.7135982 43.51116547 -89.29907591 26.36005233 -90.3125 8.91015625 C-89.75504469 5.50271064 -87.65339209 3.97461737 -85 2 C-81.15960369 0.07980184 -77.62137199 0.55226819 -73.609375 1.66015625 C-65.17614105 4.82864272 -57.76154129 9.69162861 -50.21044922 14.54174805 C-48.89971436 15.37959839 -48.89971436 15.37959839 -47.5625 16.234375 C-46.78003906 16.74194336 -45.99757812 17.24951172 -45.19140625 17.77246094 C-40.74882432 20.26101953 -36.02108063 20.63106478 -31 20 C-25.0706167 18.22683204 -21.63268689 14.805557 -17.80078125 10.1015625 C-12.75985099 4.21865473 -8.0449654 -0.64359723 0 0 Z " fill="#252122" transform="translate(140,115)"/>
<path d="M0 0 C4.65165444 2.82917789 7.66393773 5.79650068 9.40625 11.0234375 C9.50657205 12.41840878 9.55446351 13.81755007 9.56738281 15.21606445 C9.57699036 16.05736404 9.5865979 16.89866364 9.59649658 17.76545715 C9.60074646 18.67172348 9.60499634 19.57798981 9.609375 20.51171875 C9.61507507 21.4476738 9.62077515 22.38362885 9.62664795 23.34794617 C9.63609483 25.32920197 9.64263069 27.31047347 9.64648438 29.29174805 C9.65617937 32.31392036 9.68720138 35.33540947 9.71875 38.35742188 C9.72528139 40.28385014 9.73053132 42.21028325 9.734375 44.13671875 C9.7467218 45.03691238 9.7590686 45.93710602 9.77178955 46.86457825 C9.75112979 52.72123969 9.04153361 57.20039832 4.87109375 61.66796875 C-0.16652079 65.52026222 -3.09589428 66.25196094 -9.34375 66.3359375 C-10.04757812 66.36494141 -10.75140625 66.39394531 -11.4765625 66.42382812 C-16.64859032 66.48631545 -19.46946278 65.38169812 -23.59375 62.0234375 C-27.16574745 58.06527816 -28.7057285 55.15176525 -28.75488281 49.83081055 C-28.76449036 48.98951096 -28.7740979 48.14821136 -28.78399658 47.28141785 C-28.78824646 46.37515152 -28.79249634 45.46888519 -28.796875 44.53515625 C-28.80257507 43.5992012 -28.80827515 42.66324615 -28.81414795 41.69892883 C-28.82359483 39.71767303 -28.83013069 37.73640153 -28.83398438 35.75512695 C-28.84367937 32.73295464 -28.87470138 29.71146553 -28.90625 26.68945312 C-28.91278139 24.76302486 -28.91803132 22.83659175 -28.921875 20.91015625 C-28.9342218 20.00996262 -28.9465686 19.10976898 -28.95928955 18.18229675 C-28.93861804 12.3223049 -28.20669984 7.88815594 -24.09375 3.37890625 C-17.32369369 -1.89256989 -8.18160262 -3.08042267 0 0 Z " fill="#252122" transform="translate(296.59375,152.9765625)"/>
<path d="M0 0 C29.45454545 0 29.45454545 0 35.4375 5.0625 C39.36271014 9.92976058 38.5380126 16.02369792 38 22 C36.6020885 25.69546902 33.91320313 28.37811718 31 31 C31.78375 31.4125 32.5675 31.825 33.375 32.25 C36.27778285 34.18518857 36.86014803 34.78343143 38 38 C38.21882476 40.83619627 38.32467189 43.54138407 38.3125 46.375 C38.32861328 47.1175 38.34472656 47.86 38.36132812 48.625 C38.36561557 53.47839193 37.6671148 56.79514676 35 61 C24.88272972 68.52309842 12.323262 65 0 65 C0 43.55 0 22.1 0 0 Z " fill="#252122" transform="translate(141,230)"/>
<path d="M0 0 C3.66864538 2.68437467 6.50666083 5.76332166 8.5625 9.875 C8.67159842 11.25166482 8.72145152 12.63329714 8.73950195 14.01416016 C8.75875481 15.29657089 8.75875481 15.29657089 8.77839661 16.60488892 C8.78578354 17.5319162 8.79317047 18.45894348 8.80078125 19.4140625 C8.808853 20.36888519 8.81692474 21.32370789 8.82524109 22.3074646 C8.83909003 24.33337586 8.84980855 26.35931054 8.85766602 28.38525391 C8.87481596 31.4669303 8.91868732 34.5475163 8.96289062 37.62890625 C8.97302317 39.59895046 8.98153752 41.56900378 8.98828125 43.5390625 C9.00578934 44.4539444 9.02329742 45.36882629 9.04133606 46.31143188 C9.0212599 52.3080887 8.01362982 56.88823569 4.5625 61.875 C-0.04780148 66.06618316 -4.41523147 66.25888901 -10.5 66.375 C-11.18481445 66.39369141 -11.86962891 66.41238281 -12.57519531 66.43164062 C-17.65158348 66.36791002 -20.53902883 65.05472649 -24.4375 61.875 C-28.99684738 55.83694536 -29.61205414 51.28135927 -29.67578125 43.89453125 C-29.683853 43.00771164 -29.69192474 42.12089203 -29.70024109 41.2071991 C-29.71407181 39.32850086 -29.72479849 37.4497776 -29.73266602 35.57104492 C-29.74983175 32.71548951 -29.79372078 29.86110644 -29.83789062 27.00585938 C-29.84802233 25.17709181 -29.85653694 23.34831444 -29.86328125 21.51953125 C-29.88078934 20.67340775 -29.89829742 19.82728424 -29.91633606 18.95552063 C-29.89546772 13.17369638 -28.78724963 8.66566994 -25.4375 3.875 C-18.20135632 -2.00436674 -8.82318276 -2.88758708 0 0 Z " fill="#272324" transform="translate(212.4375,230.125)"/>
<path d="M0 0 C3.66864538 2.68437467 6.50666083 5.76332166 8.5625 9.875 C8.67159842 11.25166482 8.72145152 12.63329714 8.73950195 14.01416016 C8.75875481 15.29657089 8.75875481 15.29657089 8.77839661 16.60488892 C8.78578354 17.5319162 8.79317047 18.45894348 8.80078125 19.4140625 C8.808853 20.36888519 8.81692474 21.32370789 8.82524109 22.3074646 C8.83909003 24.33337586 8.84980855 26.35931054 8.85766602 28.38525391 C8.87481596 31.4669303 8.91868732 34.5475163 8.96289062 37.62890625 C8.97302317 39.59895046 8.98153752 41.56900378 8.98828125 43.5390625 C9.00578934 44.4539444 9.02329742 45.36882629 9.04133606 46.31143188 C9.0212599 52.3080887 8.01362982 56.88823569 4.5625 61.875 C-0.04780148 66.06618316 -4.41523147 66.25888901 -10.5 66.375 C-11.18481445 66.39369141 -11.86962891 66.41238281 -12.57519531 66.43164062 C-17.65158348 66.36791002 -20.53902883 65.05472649 -24.4375 61.875 C-28.99684738 55.83694536 -29.61205414 51.28135927 -29.67578125 43.89453125 C-29.683853 43.00771164 -29.69192474 42.12089203 -29.70024109 41.2071991 C-29.71407181 39.32850086 -29.72479849 37.4497776 -29.73266602 35.57104492 C-29.74983175 32.71548951 -29.79372078 29.86110644 -29.83789062 27.00585938 C-29.84802233 25.17709181 -29.85653694 23.34831444 -29.86328125 21.51953125 C-29.88078934 20.67340775 -29.89829742 19.82728424 -29.91633606 18.95552063 C-29.89546772 13.17369638 -28.78724963 8.66566994 -25.4375 3.875 C-18.20135632 -2.00436674 -8.82318276 -2.88758708 0 0 Z " fill="#272324" transform="translate(212.4375,153.125)"/>
<path d="M0 0 C3.65987426 2.35858563 5.87311744 4.93373489 7.8125 8.8125 C7.95246069 13.48158861 7.85497285 18.14048622 7.8125 22.8125 C2.8625 22.8125 -2.0875 22.8125 -7.1875 22.8125 C-7.52929688 18.61328125 -7.52929688 18.61328125 -7.87109375 14.4140625 C-8.03715626 11.83322387 -8.03715626 11.83322387 -9.1875 9.8125 C-10.8375 10.1425 -12.4875 10.4725 -14.1875 10.8125 C-14.60581404 14.10249282 -14.60581404 14.10249282 -14.1875 17.8125 C-11.17291781 21.20669624 -7.73169559 24.11886692 -4.3269043 27.11181641 C7.0914618 37.26402313 7.0914618 37.26402313 8.1328125 45.27734375 C8.37971665 50.75038569 7.63386217 55.0161843 4.8125 59.8125 C-0.24445216 65.00430421 -4.23868632 66.09101851 -11.3125 66.1875 C-17.17335308 66.21260919 -22.05834719 66.18834825 -26.8046875 62.3359375 C-32.73616046 55.8012639 -31.42655827 48.1795395 -31.1875 39.8125 C-25.9075 39.8125 -20.6275 39.8125 -15.1875 39.8125 C-14.8575 44.7625 -14.5275 49.7125 -14.1875 54.8125 C-12.5375 54.8125 -10.8875 54.8125 -9.1875 54.8125 C-7.8958649 53.72776588 -7.8958649 53.72776588 -7.875 51.125 C-8.66811619 42.71796834 -16.24283767 38.01407954 -22.1875 32.8125 C-26.56907246 28.81328174 -29.85567604 25.33159691 -30.65625 19.25390625 C-30.75103902 7.48821907 -30.75103902 7.48821907 -28.0625 4.0625 C-20.16739972 -2.11627413 -9.55195143 -3.63389456 0 0 Z " fill="#272324" transform="translate(256.1875,230.1875)"/>
<path d="M0 0 C3.83180987 2.8738574 3.83180987 2.8738574 5 6 C5.41342614 11.12218884 5.22740169 15.81524145 5 21 C0.05 21 -4.9 21 -10 21 C-10.33 17.04 -10.66 13.08 -11 9 C-13.475 8.505 -13.475 8.505 -16 8 C-17.26254923 9.0763491 -17.26254923 9.0763491 -17.5 11.5625 C-16.63819448 17.48741293 -12.39275249 21.18266722 -7.7421875 24.71484375 C-6.60136719 25.53662109 -6.60136719 25.53662109 -5.4375 26.375 C0.45441026 30.85446602 4.30793719 35.82756336 5.5390625 43.25 C5.81321189 49.48329148 5.16715148 54.19426347 1.6796875 59.4140625 C-2.8888276 63.72759071 -7.80287881 64.52803216 -13.875 64.4375 C-14.93400513 64.42614014 -14.93400513 64.42614014 -16.0144043 64.41455078 C-21.79748413 64.23159686 -25.37246501 63.44796725 -30 60 C-33.14244314 55.11175512 -33.38504609 51.2272046 -33.1875 45.625 C-33.17396484 44.88894531 -33.16042969 44.15289062 -33.14648438 43.39453125 C-33.11144869 41.59603257 -33.05765288 39.79791578 -33 38 C-28.05 38 -23.1 38 -18 38 C-17.67 42.62 -17.34 47.24 -17 52 C-15.35 52.33 -13.7 52.66 -12 53 C-10.65715584 51.86309636 -10.65715584 51.86309636 -10.625 48.875 C-11.10390473 43.92631783 -12.593118 41.53306282 -16 38 C-18.21125741 36.17896449 -20.48242603 34.46660499 -22.78125 32.7578125 C-27.56800315 28.96549047 -31.10147645 24.85020152 -33 19 C-33.64620252 13.41711078 -33.73885046 8.55979542 -31.3125 3.4375 C-23.55384313 -4.74054373 -9.6397896 -5.74380073 0 0 Z " fill="#252122" transform="translate(301,232)"/>
<path d="M0 0 C3.44215192 1.85234447 5.14258332 4.58985414 6.84375 7.9921875 C6.98371069 12.66127611 6.88622285 17.32017372 6.84375 21.9921875 C1.89375 21.9921875 -3.05625 21.9921875 -8.15625 21.9921875 C-8.48625 18.0321875 -8.81625 14.0721875 -9.15625 9.9921875 C-11.63125 9.4971875 -11.63125 9.4971875 -14.15625 8.9921875 C-15.34715955 9.96408145 -15.34715955 9.96408145 -15.27650452 11.74488831 C-15.27428391 12.50655807 -15.27206329 13.26822784 -15.26977539 14.05297852 C-15.26969986 14.91379532 -15.26962433 15.77461212 -15.26954651 16.66151428 C-15.26438522 17.59692551 -15.25922394 18.53233673 -15.25390625 19.49609375 C-15.25178383 20.92561623 -15.25178383 20.92561623 -15.24961853 22.38401794 C-15.24400152 25.44093915 -15.23144616 28.49778827 -15.21875 31.5546875 C-15.21373719 33.62174374 -15.20917391 35.68880112 -15.20507812 37.75585938 C-15.19402656 42.83466338 -15.17675055 47.9134132 -15.15625 52.9921875 C-13.50010343 53.37437517 -11.83167976 53.70613852 -10.15625 53.9921875 C-8.21534174 52.05127924 -8.75705565 48.51924848 -8.59375 45.9296875 C-8.449375 43.6403125 -8.305 41.3509375 -8.15625 38.9921875 C-3.20625 38.9921875 1.74375 38.9921875 6.84375 38.9921875 C7.54253329 54.64493331 7.54253329 54.64493331 3.5234375 60.4765625 C-1.17636096 64.71731088 -6.027414 65.49304953 -12.15625 65.4296875 C-12.84203125 65.44966797 -13.5278125 65.46964844 -14.234375 65.49023438 C-19.35713993 65.48534624 -22.20959775 64.17515962 -26.15625 60.9921875 C-29.68845293 57.0781248 -31.26730531 54.17570439 -31.31738281 48.90722656 C-31.32699036 48.08917542 -31.3365979 47.27112427 -31.34649658 46.42828369 C-31.3528714 45.10640045 -31.3528714 45.10640045 -31.359375 43.7578125 C-31.36507507 42.84642517 -31.37077515 41.93503784 -31.37664795 40.99603271 C-31.38609509 39.06605183 -31.3926308 37.13605484 -31.39648438 35.20605469 C-31.4061673 32.26728778 -31.43718395 29.32922711 -31.46875 26.390625 C-31.47528266 24.51302497 -31.4805321 22.63541996 -31.484375 20.7578125 C-31.4967218 19.88465393 -31.5090686 19.01149536 -31.52178955 18.11187744 C-31.49992756 12.0608025 -30.75207305 7.00712781 -26.65625 2.25 C-18.81833186 -3.6692611 -9.04666104 -3.44166453 0 0 Z " fill="#252122" transform="translate(172.15625,154.0078125)"/>
<path d="M0 0 C3.54019508 3.37573614 4.87235065 6.55109695 5.30078125 11.4140625 C5.31122853 14.6109305 5.16627905 17.80744219 5 21 C0.05 21 -4.9 21 -10 21 C-10.495 14.565 -10.495 14.565 -11 8 C-12.65 8 -14.3 8 -16 8 C-17.20050456 8.98077719 -17.20050456 8.98077719 -17.12025452 10.82862854 C-17.11803391 11.62582809 -17.11581329 12.42302765 -17.11352539 13.24438477 C-17.11344986 14.14524307 -17.11337433 15.04610138 -17.11329651 15.97425842 C-17.10813522 16.95341721 -17.10297394 17.93257599 -17.09765625 18.94140625 C-17.09553383 20.43751686 -17.09553383 20.43751686 -17.09336853 21.96385193 C-17.08775114 25.16343124 -17.07519571 28.36294169 -17.0625 31.5625 C-17.05748724 33.72591045 -17.05292395 35.88932199 -17.04882812 38.05273438 C-17.03777607 43.36851325 -17.02102104 48.68425171 -17 54 C-14.52733235 53.65555119 -14.52733235 53.65555119 -12 53 C-10.58365167 50.16730334 -10.6536995 47.52533562 -10.4375 44.375 C-10.293125 42.27125 -10.14875 40.1675 -10 38 C-5.05 38 -0.1 38 5 38 C5.44793713 52.48330059 5.44793713 52.48330059 2 58 C-2.23108843 62.31006875 -5.45703281 64.13237769 -11.51074219 64.29296875 C-24.15295702 64.40640271 -24.15295702 64.40640271 -29 60 C-33.01315958 54.1643695 -33.59344015 48.73525418 -33.53125 41.8046875 C-33.5350769 40.85361115 -33.53890381 39.90253479 -33.54284668 38.92263794 C-33.54555417 36.92416314 -33.53827499 34.92565219 -33.52148438 32.92724609 C-33.50001038 29.87647424 -33.52135023 26.82804434 -33.546875 23.77734375 C-33.54423245 21.82811983 -33.53910897 19.87889737 -33.53125 17.9296875 C-33.53934692 17.02330536 -33.54744385 16.11692322 -33.55578613 15.18307495 C-33.47374609 9.62224123 -32.70847551 6.40871893 -29 2 C-21.73878819 -4.71662093 -8.37711059 -5.68792267 0 0 Z " fill="#272324" transform="translate(259,155)"/>
<path d="M0 0 C5.56443814 3.86629898 10.32574066 8.16200975 15.01953125 13.046875 C17.04213179 15.16480107 17.04213179 15.16480107 20 17 C20.3359375 19.5390625 20.3359375 19.5390625 20.375 22.625 C20.65740165 27.8839463 21.56240115 30.87027899 24.94140625 34.890625 C27.77639055 40.53967121 25.59545818 48.12483746 24.35546875 54.0390625 C24.18501541 54.88238129 24.01456207 55.72570007 23.83894348 56.59457397 C23.29570888 59.27291951 22.74173246 61.94891118 22.1875 64.625 C21.82677845 66.39699397 21.46674685 68.16912855 21.10742188 69.94140625 C19.13455442 79.64114076 17.09873526 89.32669266 15 99 C14.34 98.67 13.68 98.34 13 98 C12.52929688 95.19384766 12.52929688 95.19384766 12.21875 91.4140625 C12.16032425 90.73309509 12.1018985 90.05212769 12.04170227 89.3505249 C11.85189976 87.10934603 11.67579763 84.86731731 11.5 82.625 C11.37269561 81.08669266 11.24467995 79.54844402 11.1159668 78.01025391 C10.7290703 73.34130597 10.36153703 68.67097301 10 64 C9.94459045 63.28561768 9.88918091 62.57123535 9.83209229 61.83520508 C9.19216454 53.55890281 8.58075215 45.28067071 8 37 C10.475 36.505 10.475 36.505 13 36 C10.68887531 32.85315414 8.37587072 29.70769499 6.0625 26.5625 C5.0734668 25.21575195 5.0734668 25.21575195 4.06445312 23.84179688 C3.43603516 22.98779297 2.80761719 22.13378906 2.16015625 21.25390625 C1.57886963 20.46314697 0.99758301 19.6723877 0.39868164 18.85766602 C-0.86772886 17.08574745 -0.86772886 17.08574745 -2 16 C-2.35111062 10.38223003 -1.38011717 5.43421134 0 0 Z " fill="#282425" transform="translate(67,175)"/>
<path d="M0 0 C-0.22833199 11.33356958 -2.57047391 22.03927806 -9.8125 31 C-12.5612378 34.72248816 -13.40006826 37.0145258 -13.2890625 41.6328125 C-13.26013916 42.86805664 -13.23121582 44.10330078 -13.20141602 45.37597656 C-13.13838083 46.91749098 -13.07077388 48.45882149 -13 50 C-12.9571286 50.94307007 -12.9142572 51.88614014 -12.87008667 52.85778809 C-12.54783505 59.6613661 -12.1704685 66.46117179 -11.77319336 73.26074219 C-11.56179478 76.88709736 -11.35760804 80.51380833 -11.15429688 84.140625 C-11.02125793 86.46617016 -10.88780883 88.7916919 -10.75390625 91.1171875 C-10.6934462 92.19128876 -10.63298615 93.26539001 -10.57069397 94.37203979 C-10.24072945 99.95686867 -9.72498625 105.45385519 -9 111 C-8.86686016 113.67997612 -8.91349603 116.3115553 -8.9375 119 C-8.94201172 119.67933594 -8.94652344 120.35867188 -8.95117188 121.05859375 C-8.9627717 122.70576874 -8.98069801 124.35289726 -9 126 C-11.1739066 122.7391401 -11.56890506 120.75793431 -12.2265625 116.9296875 C-12.44989258 115.66036377 -12.67322266 114.39104004 -12.90332031 113.08325195 C-13.07909607 112.0577977 -13.07909607 112.0577977 -13.25842285 111.0116272 C-13.89377884 107.30839886 -14.55243234 103.6093274 -15.2109375 99.91015625 C-15.42097412 98.72703102 -15.42097412 98.72703102 -15.63525391 97.52000427 C-16.7304515 91.39572677 -17.89991582 85.28781487 -19.1015625 79.18359375 C-19.27978546 78.27816833 -19.45800842 77.37274292 -19.64163208 76.43988037 C-20.34825664 72.85867403 -21.05711111 69.27793629 -21.77227783 65.69842529 C-22.88287735 60.13853532 -23.96556308 54.57458616 -25 49 C-25.13317627 48.29212341 -25.26635254 47.58424683 -25.40356445 46.85491943 C-25.76300823 44.90034279 -26.09332344 42.94047476 -26.421875 40.98046875 C-26.7017627 39.34501099 -26.7017627 39.34501099 -26.98730469 37.67651367 C-27 35 -27 35 -25.59863281 33.3137207 C-25.07108398 32.88019287 -24.54353516 32.44666504 -24 32 C-22.84859625 29.11536053 -22.84859625 29.11536053 -23.0703125 26.3984375 C-23.15771609 21.56626774 -23.07747516 18.25088437 -19.83984375 14.4921875 C-16.97715064 12.1810963 -14.03143939 10.08387384 -11 8 C-9.11405589 6.49275953 -7.23823742 4.9727216 -5.375 3.4375 C-1.12670565 0 -1.12670565 0 0 0 Z " fill="#2A2627" transform="translate(130,174)"/>
<path d="M0 0 C3.09349585 1.39861839 5.37823888 3.09709354 7.9375 5.3125 C18.66060543 13.77810955 32.56220677 16.39642439 45.9375 16.3125 C46.86481934 16.30903564 47.79213867 16.30557129 48.74755859 16.30200195 C56.58404221 16.18499127 64.33582907 15.52973273 72.125 14.6875 C73.22577881 14.56995361 74.32655762 14.45240723 75.46069336 14.33129883 C85.70007683 13.12180112 95.43476168 10.86288471 105 7 C104.72053025 10.26048047 104.08564763 11.88948692 102.0625 14.5 C84.47995467 28.85309823 56.94118618 28.662275 35.46289062 26.77734375 C23.10564738 25.32113749 10.11567037 21.9724923 1 13 C-1.18788113 9.35353144 -1.28056549 6.20848235 -1 2 C-0.67 1.34 -0.34 0.68 0 0 Z " fill="#F8F8F8" transform="translate(45,58)"/>
<path d="M0 0 C0.55679687 3.47826194 0.77958238 6.54608868 0 10 C-2.12584186 12.08289556 -4.21412584 13.3519558 -6.8359375 14.74609375 C-9.28872357 15.95443162 -9.28872357 15.95443162 -11 19 C-11.47772178 22.22939922 -11.09256109 24.93089658 -10 28 C-5.4350454 33.65657418 0.42274218 37.12992386 7 40 C2.04882325 41.65039225 -2.38463784 39.37017945 -7.25 37.875 C-8.27480469 37.57851562 -9.29960937 37.28203125 -10.35546875 36.9765625 C-16.96581455 34.96878694 -23.1621037 32.82499067 -27.4375 27.0625 C-28.60417008 22.7847097 -28.49922571 19.99845143 -26.5 16 C-20.97989761 9.37587713 -8.99470319 0 0 0 Z " fill="#F6F5F6" transform="translate(40,54)"/>
<path d="M0 0 C4.55555556 0.55555556 4.55555556 0.55555556 6 2 C6.10301414 3.33993616 6.13848453 4.68517965 6.14526367 6.02905273 C6.15483345 7.31059486 6.15483345 7.31059486 6.16459656 8.61802673 C6.16570938 9.54716385 6.1668222 10.47630096 6.16796875 11.43359375 C6.17129715 12.38186539 6.17462555 13.33013702 6.17805481 14.30714417 C6.18312819 16.31714389 6.18546301 18.32715208 6.18530273 20.3371582 C6.18748822 23.42087619 6.20563683 26.50423606 6.22460938 29.58789062 C6.22754334 31.5364571 6.22952812 33.48502529 6.23046875 35.43359375 C6.23765427 36.36070663 6.24483978 37.28781952 6.25224304 38.24302673 C6.24916641 39.10054031 6.24608978 39.95805389 6.24291992 40.84155273 C6.24434494 41.59798569 6.24576996 42.35441864 6.24723816 43.1337738 C6 45 6 45 4 47 C-0.55555556 46.44444444 -0.55555556 46.44444444 -2 45 C-2.10301414 43.66006384 -2.13848453 42.31482035 -2.14526367 40.97094727 C-2.15164352 40.11658585 -2.15802338 39.26222443 -2.16459656 38.38197327 C-2.16570938 37.45283615 -2.1668222 36.52369904 -2.16796875 35.56640625 C-2.17129715 34.61813461 -2.17462555 33.66986298 -2.17805481 32.69285583 C-2.18312819 30.68285611 -2.18546301 28.67284792 -2.18530273 26.6628418 C-2.18748822 23.57912381 -2.20563683 20.49576394 -2.22460938 17.41210938 C-2.22754334 15.4635429 -2.22952812 13.51497471 -2.23046875 11.56640625 C-2.23765427 10.63929337 -2.24483978 9.71218048 -2.25224304 8.75697327 C-2.24916641 7.89945969 -2.24608978 7.04194611 -2.24291992 6.15844727 C-2.24434494 5.40201431 -2.24576996 4.64558136 -2.24723816 3.8662262 C-2 2 -2 2 0 0 Z " fill="#FBFBFB" transform="translate(285,162)"/>
<path d="M0 0 C1.875 0.75 1.875 0.75 2.875 1.75 C2.97801414 3.08993616 3.01348453 4.43517965 3.02026367 5.77905273 C3.02983345 7.06059486 3.02983345 7.06059486 3.03959656 8.36802673 C3.04070938 9.29716385 3.0418222 10.22630096 3.04296875 11.18359375 C3.04629715 12.13186539 3.04962555 13.08013702 3.05305481 14.05714417 C3.05812819 16.06714389 3.06046301 18.07715208 3.06030273 20.0871582 C3.06248822 23.17087619 3.08063683 26.25423606 3.09960938 29.33789062 C3.10254334 31.2864571 3.10452812 33.23502529 3.10546875 35.18359375 C3.11265427 36.11070663 3.11983978 37.03781952 3.12724304 37.99302673 C3.12416641 38.85054031 3.12108978 39.70805389 3.11791992 40.59155273 C3.11934494 41.34798569 3.12076996 42.10441864 3.12223816 42.8837738 C2.875 44.75 2.875 44.75 0.875 46.75 C-1.6875 46.5 -1.6875 46.5 -4.125 45.75 C-5.83020583 42.33958833 -5.30993888 38.44466461 -5.328125 34.69140625 C-5.33382507 33.79131332 -5.33952515 32.8912204 -5.34539795 31.96385193 C-5.35485201 30.05818866 -5.36138354 28.152509 -5.36523438 26.24682617 C-5.3749495 23.3276735 -5.40597267 20.40922199 -5.4375 17.49023438 C-5.44402902 15.64062919 -5.44927989 13.79101896 -5.453125 11.94140625 C-5.4654718 11.06633926 -5.4778186 10.19127228 -5.49053955 9.28968811 C-5.48753845 8.47551926 -5.48453735 7.6613504 -5.48144531 6.82250977 C-5.48509094 6.10684341 -5.48873657 5.39117706 -5.49249268 4.65382385 C-4.87481376 1.45389108 -3.318376 -0.39039718 0 0 Z " fill="#F5F5F5" transform="translate(203.125,239.25)"/>
<path d="M0 0 C1.875 0.75 1.875 0.75 2.875 1.75 C2.97801414 3.08993616 3.01348453 4.43517965 3.02026367 5.77905273 C3.02983345 7.06059486 3.02983345 7.06059486 3.03959656 8.36802673 C3.04070938 9.29716385 3.0418222 10.22630096 3.04296875 11.18359375 C3.04629715 12.13186539 3.04962555 13.08013702 3.05305481 14.05714417 C3.05812819 16.06714389 3.06046301 18.07715208 3.06030273 20.0871582 C3.06248822 23.17087619 3.08063683 26.25423606 3.09960938 29.33789062 C3.10254334 31.2864571 3.10452812 33.23502529 3.10546875 35.18359375 C3.11265427 36.11070663 3.11983978 37.03781952 3.12724304 37.99302673 C3.12416641 38.85054031 3.12108978 39.70805389 3.11791992 40.59155273 C3.11934494 41.34798569 3.12076996 42.10441864 3.12223816 42.8837738 C2.875 44.75 2.875 44.75 0.875 46.75 C-1.6875 46.5 -1.6875 46.5 -4.125 45.75 C-5.83020583 42.33958833 -5.30993888 38.44466461 -5.328125 34.69140625 C-5.33382507 33.79131332 -5.33952515 32.8912204 -5.34539795 31.96385193 C-5.35485201 30.05818866 -5.36138354 28.152509 -5.36523438 26.24682617 C-5.3749495 23.3276735 -5.40597267 20.40922199 -5.4375 17.49023438 C-5.44402902 15.64062919 -5.44927989 13.79101896 -5.453125 11.94140625 C-5.4654718 11.06633926 -5.4778186 10.19127228 -5.49053955 9.28968811 C-5.48753845 8.47551926 -5.48453735 7.6613504 -5.48144531 6.82250977 C-5.48509094 6.10684341 -5.48873657 5.39117706 -5.49249268 4.65382385 C-4.87481376 1.45389108 -3.318376 -0.39039718 0 0 Z " fill="#F5F5F5" transform="translate(203.125,162.25)"/>
<path d="M0 0 C2.31 0.33 4.62 0.66 7 1 C8.40603618 3.81207235 8.24557505 6.24009466 8.3125 9.375 C8.34988281 10.51710938 8.38726562 11.65921875 8.42578125 12.8359375 C8 16 8 16 6.23046875 18.4140625 C4 20 4 20 0 20 C0 13.4 0 6.8 0 0 Z " fill="#F9F8F8" transform="translate(156,266)"/>
<path d="M0 0 C10.89 0 21.78 0 33 0 C28.36819731 4.63180269 24.70644388 5.29097852 18.25 5.3125 C11.67596462 5.22272851 4.85987574 4.85987574 0 0 Z " fill="#E0DFE0" transform="translate(82,146)"/>
<path d="M0 0 C1.98 0 3.96 0 6 0 C8 2 8 2 8.265625 4.75 C8.26046875 5.8225 8.2553125 6.895 8.25 8 C8.25515625 9.0725 8.2603125 10.145 8.265625 11.25 C8 14 8 14 6 16 C4.02 16 2.04 16 0 16 C0 10.72 0 5.44 0 0 Z " fill="#F8F8F8" transform="translate(156,240)"/>
<path d="M0 0 C15.06112274 -1.20757332 15.06112274 -1.20757332 19.46484375 1.53515625 C22.16350217 4.95961522 22.94059047 7.53957617 23.5 11.875 C23 15 23 15 21 17 C16.44444444 16.44444444 16.44444444 16.44444444 15 15 C14.85573386 10.33154772 14.95791585 5.67134047 15 1 C10.05 1 5.1 1 0 1 C0 0.67 0 0.34 0 0 Z " fill="#F3F3F3" transform="translate(268,269)"/>
<path d="M0 0 C2.81880741 3.9695231 3.66222176 6.81804356 3.234375 11.73828125 C1.234375 13.73828125 1.234375 13.73828125 -1.328125 13.92578125 C-3.765625 13.73828125 -3.765625 13.73828125 -4.765625 12.73828125 C-4.83882663 10.20550475 -4.85790069 7.70724207 -4.828125 5.17578125 C-4.7971875 1.49421875 -4.7971875 1.49421875 -4.765625 -2.26171875 C-9.715625 -2.26171875 -14.665625 -2.26171875 -19.765625 -2.26171875 C-19.765625 -2.59171875 -19.765625 -2.92171875 -19.765625 -3.26171875 C-5.26959658 -5.47331809 -5.26959658 -5.47331809 0 0 Z " fill="#F1F1F1" transform="translate(245.765625,272.26171875)"/>
<path d="M0 0 C2.5625 0.25 2.5625 0.25 5 1 C6.92572521 4.85145043 6.04883218 9.80043252 6 14 C10.95 14 15.9 14 21 14 C21 14.33 21 14.66 21 15 C18.43786831 15.27698721 15.87907631 15.52215772 13.3125 15.75 C12.59126953 15.83121094 11.87003906 15.91242188 11.12695312 15.99609375 C7.36906577 16.3049612 5.34352468 16.21325419 2.10546875 14.203125 C-0.78332651 11.18034109 -1.9525443 9.67624375 -2.25 5.4375 C-2 2 -2 2 0 0 Z " fill="#E1E0E1" transform="translate(243,239)"/>
<path d="M0 0 C4.55555556 0.55555556 4.55555556 0.55555556 6 2 C6.14355117 6.00220653 6.04216403 9.99441683 6 14 C10.95 14 15.9 14 21 14 C21 14.33 21 14.66 21 15 C7.00511322 17.1504748 7.00511322 17.1504748 2.37890625 14.49609375 C-0.53856399 11.29961388 -1.84853938 8.90876374 -2.5625 4.625 C-2 2 -2 2 0 0 Z " fill="#E7E7E7" transform="translate(285,239)"/>
<path d="M0 0 C1.79158489 -0.02696365 3.58328473 -0.04637917 5.375 -0.0625 C6.37273437 -0.07410156 7.37046875 -0.08570313 8.3984375 -0.09765625 C11 0 11 0 13 1 C12.67 2.65 12.34 4.3 12 6 C9.6875 6.1875 9.6875 6.1875 7 6 C5.4375 4.5625 5.4375 4.5625 4 3 C1.89667109 2.28552357 1.89667109 2.28552357 0 2 C0 1.34 0 0.68 0 0 Z " fill="#DAD9D9" transform="translate(91,155)"/>
</svg>
