<?xml version="1.0" encoding="UTF-8"?>
<!-- Generator: visioncortex VTracer 0.6.3 -->
<svg version="1.1" xmlns="http://www.w3.org/2000/svg" width="500" height="500">
<path d="M0 0 C165 0 330 0 500 0 C500 165 500 330 500 500 C335 500 170 500 0 500 C0 335 0 170 0 0 Z " fill="#FEFEFE" transform="translate(0,0)"/>
<path d="M0 0 C45.54 0 91.08 0 138 0 C130.47 25.09 130.47 25.09 127.07 27.19 C126 27.48 126 27.48 124.91 27.78 C124.11 28 123.31 28.22 122.49 28.45 C118.49 29.33 114.5 29.98 110.44 30.5 C109.54 30.62 108.65 30.74 107.73 30.87 C99.67 31.95 91.6 32.95 83.52 33.91 C78.8 34.48 74.1 35.13 69.41 35.94 C61.3 37.32 53.15 38.36 45 39.44 C28.4 41.64 28.4 41.64 11.85 44.19 C7.49 44.88 3.39 45.11 -1 45 C0.03 42.89 1.1 40.84 2.29 38.81 C6.31 31.67 7.6 25.81 5.39 17.79 C4.14 13.73 2.76 9.74 1.31 5.75 C0 2 0 2 0 0 Z " fill="#5CB4BD" transform="translate(285,226)"/>
<path d="M0 0 C-2.85 2.89 -5.75 5.71 -8.71 8.5 C-18.9 18.21 -26.21 27.11 -31.06 40.5 C-32.85 45.35 -35.64 48.26 -40 51 C-42.83 51.94 -44.54 52.12 -47.47 52.11 C-48.82 52.11 -48.82 52.11 -50.2 52.11 C-51.17 52.11 -52.14 52.1 -53.14 52.1 C-54.63 52.1 -54.63 52.1 -56.15 52.09 C-59.33 52.09 -62.51 52.08 -65.69 52.06 C-67.84 52.06 -70 52.05 -72.15 52.05 C-77.43 52.04 -82.72 52.02 -88 52 C-87.98 53.11 -87.96 54.23 -87.94 55.38 C-88.03 60.48 -89.5 61.5 -93 65 C-96.48 66.74 -100.2 66.44 -104 66 C-106.88 64.62 -106.88 64.62 -109 62 C-109.81 59.47 -110.46 56.91 -111.12 54.33 C-112.44 50.82 -114.8 49.76 -118 48 C-121.81 44 -123.49 39.81 -125.25 34.69 C-125.65 33.61 -125.65 33.61 -126.06 32.5 C-127.82 27.49 -128.53 23.31 -128 18 C-124.47 15.65 -121.66 15.47 -117.56 15.12 C-115.84 14.96 -114.12 14.79 -112.41 14.62 C-111.41 14.53 -110.42 14.43 -109.4 14.34 C-78.85 11.32 -48.52 7.2 -18.26 2.05 C-5.21 -0.16 -5.21 -0.16 0 0 Z " fill="#F5A519" transform="translate(431,255)"/>
<path d="M0 0 C26.4 0 52.8 0 80 0 C72.47 25.09 72.47 25.09 69.07 27.19 C68 27.48 68 27.48 66.91 27.78 C66.11 28 65.31 28.22 64.49 28.45 C60.49 29.33 56.5 29.98 52.44 30.5 C51.55 30.62 50.65 30.74 49.73 30.86 C47.83 31.12 45.92 31.37 44 31.61 C40.9 32.01 37.79 32.43 34.68 32.86 C32.58 33.13 30.48 33.41 28.38 33.69 C26.92 33.88 26.92 33.88 25.44 34.09 C7.97 36.31 7.97 36.31 3 33 C3.32 32.28 3.64 31.57 3.97 30.83 C7.81 20.26 3.22 10.32 0 0 Z " fill="#3EAD81" transform="translate(343,226)"/>
<path d="M0 0 C-2.88 4.65 -5.95 8.3 -10 12 C-10.66 12 -11.32 12 -12 12 C-12.25 12.58 -12.5 13.15 -12.75 13.75 C-14.18 16.33 -15.78 18.06 -18 20 C-18.66 20 -19.32 20 -20 20 C-20.25 20.58 -20.5 21.15 -20.75 21.75 C-22.18 24.33 -23.78 26.06 -26 28 C-26.66 28 -27.32 28 -28 28 C-28 28.66 -28 29.32 -28 30 C-27.31 30.24 -26.63 30.48 -25.92 30.73 C-24.57 31.24 -24.57 31.24 -23.19 31.75 C-22.29 32.07 -21.4 32.4 -20.48 32.73 C-17.67 34.17 -16.53 35.25 -15 38 C-14.19 42.07 -14.05 46.24 -16.05 49.95 C-18.36 52.76 -20.32 54.8 -23.99 55.24 C-27.79 55.36 -30.4 55.29 -33.88 53.62 C-36.52 50.35 -37.09 47.35 -38.12 43.33 C-39.44 39.82 -41.8 38.76 -45 37 C-48.81 33 -50.49 28.81 -52.25 23.69 C-52.65 22.61 -52.65 22.61 -53.06 21.5 C-54.82 16.49 -55.53 12.31 -55 7 C-51.34 4.56 -48.2 4.43 -43.94 4.06 C-42.23 3.9 -40.53 3.74 -38.82 3.57 C-37.43 3.44 -37.43 3.44 -36.02 3.31 C-29.3 2.62 -22.6 1.78 -15.9 0.97 C-10.56 0.33 -5.38 -0.17 0 0 Z " fill="#EF8D1C" transform="translate(358,266)"/>
<path d="M0 0 C4.95 0 9.9 0 15 0 C15.99 1.98 16.98 3.96 18 6 C19.74 7.41 19.74 7.41 21.64 8.32 C23.78 9.74 24.82 10.43 25.61 12.9 C25.81 15.23 25.79 17.46 25.68 19.8 C25.67 20.64 25.66 21.47 25.65 22.34 C25.61 25 25.53 27.65 25.44 30.31 C25.4 32.12 25.37 33.93 25.34 35.74 C25.26 40.16 25.14 44.58 25 49 C22.23 49.11 19.46 49.19 16.69 49.25 C15.9 49.28 15.12 49.32 14.31 49.35 C8.49 49.45 8.49 49.45 5.99 47.14 C4.83 44.64 4.45 42.49 4.12 39.75 C2.74 31.25 -1.15 26.02 -8 21 C-8.66 20.67 -9.32 20.34 -10 20 C-10.5 16.87 -10.68 14.11 -10 11 C-8.13 9.08 -6.26 7.83 -3.95 6.48 C-1.44 4.83 -1.44 4.83 0 0 Z " fill="#215B8A" transform="translate(345,170)"/>
<path d="M0 0 C5.53 3.09 9.1 6.82 11.25 12.81 C12.07 18.75 11.57 23.81 8.59 29.05 C5.62 32.95 1.85 35.28 -2.75 36.81 C-9.52 37.55 -15.22 37.01 -20.75 32.81 C-25.29 28.05 -26.52 23.91 -27 17.44 C-26.62 11.96 -24.96 8.26 -21.44 4.06 C-14.59 -1.67 -8.41 -2.66 0 0 Z " fill="#2A4E79" transform="translate(196.75,281.1875)"/>
<path d="M0 0 C17 0 17 0 24 4 C28.44 9.35 28.56 14.13 28.32 20.97 C27.75 26.36 25.93 29.34 21.94 32.81 C14.04 38.69 14.68 36 0 36 C0 24.12 0 12.24 0 0 Z " fill="#294D78" transform="translate(249,281)"/>
<path d="M0 0 C17.57 0 17.57 0 23.94 4.31 C25.58 6.93 25.31 8.98 25 12 C23.96 14.67 23.04 15.96 21 18 C21.82 18.47 22.65 18.95 23.5 19.44 C26.22 22.23 26.42 22.75 26.56 26.44 C26.31 30.74 25.29 33.06 22 36 C17 38 17 38 0 38 C0 25.46 0 12.92 0 0 Z " fill="#31547D" transform="translate(140,280)"/>
<path d="M0 0 C17.04 0 17.04 0 22 3 C24.4 5.4 24.3 6.08 24.31 9.38 C24.26 12.52 24.12 13.8 22.5 16.56 C22 17.04 21.51 17.51 21 18 C22.24 18.99 22.24 18.99 23.5 20 C26.31 23.38 26.76 24.82 26.5 29.07 C25.65 32.35 23.59 33.97 21 36 C18.65 37.17 17.26 37.12 14.65 37.1 C13.5 37.09 13.5 37.09 12.33 37.09 C10.87 37.08 10.87 37.08 9.38 37.06 C6.28 37.04 3.19 37.02 0 37 C0 24.79 0 12.58 0 0 Z " fill="#294D78" transform="translate(251,225)"/>
<path d="M0 0 C4.55 -0.12 4.55 -0.12 9.19 -0.25 C10.61 -0.3 10.61 -0.3 12.06 -0.36 C16.12 -0.41 18.47 -0.3 22.08 1.73 C24.79 4.94 24.59 6.84 24.38 10.87 C23.9 13.55 22.96 15.12 21 17 C21.82 17.68 22.65 18.36 23.5 19.06 C26 22 26 22 26.5 25.5 C25.97 29.18 25.31 31.11 23 34 C20.06 35.81 17.88 36.24 14.45 36.2 C13.69 36.19 12.93 36.19 12.15 36.18 C11.19 36.16 10.23 36.14 9.25 36.12 C4.67 36.06 4.67 36.06 0 36 C0 24.12 0 12.24 0 0 Z " fill="#294D78" transform="translate(109,281)"/>
<path d="M0 0 C4.55 -0.15 4.55 -0.15 9.19 -0.31 C10.13 -0.36 11.08 -0.4 12.06 -0.45 C16.49 -0.52 18.42 -0.43 22.08 2.3 C24.59 5.83 24.61 7.75 24 12 C22.5 14.94 22.5 14.94 21 17 C21.64 17.52 22.28 18.03 22.94 18.56 C25.65 21.77 25.93 23.82 26 28 C24.85 31.21 24.09 33.31 21.17 35.16 C18.76 36.09 17.03 36.23 14.45 36.2 C13.69 36.19 12.93 36.19 12.15 36.18 C11.19 36.16 10.23 36.14 9.25 36.12 C4.67 36.06 4.67 36.06 0 36 C0 24.12 0 12.24 0 0 Z " fill="#284D78" transform="translate(205,226)"/>
<path d="M0 0 C2.97 0 5.94 0 9 0 C10.68 3.98 12.35 7.96 14.02 11.95 C14.58 13.3 15.15 14.66 15.72 16.01 C21.55 29.83 21.55 29.83 23 37 C20.03 37 17.06 37 14 37 C13.01 33.53 13.01 33.53 12 30 C7.05 30 2.1 30 -3 30 C-3.33 31.98 -3.66 33.96 -4 36 C-5 37 -5 37 -7.07 37.1 C-7.89 37.09 -8.71 37.07 -9.56 37.06 C-10.39 37.05 -11.22 37.04 -12.07 37.04 C-12.7 37.02 -13.34 37.01 -14 37 C-9.39 24.65 -4.7 12.32 0 0 Z " fill="#2B4F7A" transform="translate(178,225)"/>
<path d="M0 0 C3.74 1.8 5.55 3.37 7.94 6.75 C9.32 10.98 8.65 13.63 8 18 C-6.34 18.95 -20.63 19.12 -35 19 C-36.55 15.89 -36.29 13.44 -36 10 C-33.89 6.08 -31.78 3.35 -28 1 C-23.55 0.33 -19.29 0.47 -15.12 2.19 C-14.42 2.46 -13.72 2.72 -13 3 C-12.13 2.32 -12.13 2.32 -11.25 1.62 C-7.72 -0.92 -4.21 -0.65 0 0 Z " fill="#F2961D" transform="translate(339,200)"/>
<path d="M0 0 C2.16 -0.29 2.16 -0.29 4.62 -0.19 C5.44 -0.16 6.26 -0.13 7.1 -0.11 C8.04 -0.05 8.04 -0.05 9 0 C9.32 0.82 9.65 1.64 9.98 2.49 C11.18 5.56 12.39 8.62 13.59 11.69 C14.11 13.01 14.63 14.34 15.15 15.66 C15.9 17.57 16.65 19.48 17.4 21.39 C18.07 23.11 18.07 23.11 18.76 24.86 C19.54 26.83 20.33 28.78 21.16 30.73 C22 33 22 33 22 36 C19.36 36 16.72 36 14 36 C13.01 34.02 12.02 32.04 11 30 C6.38 30 1.76 30 -3 30 C-3.66 31.98 -4.32 33.96 -5 36 C-7.97 36 -10.94 36 -14 36 C-13.32 31.93 -12.07 28.33 -10.57 24.49 C-10.21 23.58 -10.21 23.58 -9.85 22.65 C-9.34 21.38 -8.84 20.1 -8.33 18.82 C-7.56 16.88 -6.8 14.92 -6.04 12.97 C-5.55 11.73 -5.06 10.49 -4.57 9.24 C-4.12 8.12 -3.68 6.99 -3.22 5.83 C-2 3 -2 3 0 0 Z " fill="#2A4E79" transform="translate(83,281)"/>
<path d="M0 0 C2.64 0 5.28 0 8 0 C8 12.21 8 24.42 8 37 C5.36 37 2.72 37 0 37 C0 32.38 0 27.76 0 23 C-4.29 23 -8.58 23 -13 23 C-13 27.62 -13 32.24 -13 37 C-15.64 37 -18.28 37 -21 37 C-21 25.12 -21 13.24 -21 1 C-18.36 1 -15.72 1 -13 1 C-13 5.62 -13 10.24 -13 15 C-8.71 15 -4.42 15 0 15 C0 10.05 0 5.1 0 0 Z " fill="#284C77" transform="translate(152,225)"/>
<path d="M0 0 C2.64 0 5.28 0 8 0 C8.02 0.71 8.04 1.41 8.06 2.14 C8.16 5.34 8.27 8.55 8.38 11.75 C8.41 12.86 8.44 13.97 8.47 15.12 C8.51 16.19 8.55 17.26 8.59 18.36 C8.62 19.34 8.65 20.33 8.68 21.34 C9 24.01 9.64 25.71 11 28 C14.42 28.17 14.42 28.17 18 28 C20.68 25.32 20.31 23.86 20.41 20.12 C20.45 18.95 20.49 17.78 20.53 16.58 C20.56 15.36 20.59 14.14 20.62 12.88 C20.66 11.64 20.7 10.41 20.74 9.14 C20.84 6.1 20.92 3.05 21 0 C23.64 0 26.28 0 29 0 C29.12 4.54 29.19 9.08 29.25 13.62 C29.28 14.91 29.32 16.2 29.35 17.52 C29.47 29.3 29.47 29.3 25 34 C21.07 37.57 16.82 37.56 11.73 37.42 C7.62 36.79 4.77 35.07 2 32 C-0.23 28.49 -0.23 25.59 -0.2 21.48 C-0.19 20.23 -0.18 18.98 -0.18 17.7 C-0.16 16.39 -0.14 15.09 -0.12 13.75 C-0.12 12.43 -0.11 11.12 -0.1 9.76 C-0.07 6.51 -0.04 3.25 0 0 Z " fill="#294D78" transform="translate(213,281)"/>
<path d="M0 0 C4.48 -0.15 8.96 -0.23 13.44 -0.31 C14.7 -0.35 15.96 -0.4 17.26 -0.44 C26.18 -0.56 31.92 0.52 38.66 6.47 C43.45 11.5 46.21 17.86 49.19 24.06 C49.71 25.13 50.23 26.19 50.76 27.28 C51.76 29.31 52.74 31.34 53.72 33.38 C54.74 35.46 55.79 37.51 56.86 39.56 C58 42 58 42 58 45 C51.59 44.63 51.59 44.63 48.95 41.8 C47.05 39.07 45.56 36.4 44.12 33.4 C43.61 32.35 43.1 31.31 42.58 30.22 C41.52 28.03 40.47 25.83 39.42 23.64 C38.91 22.59 38.4 21.54 37.88 20.46 C37.19 19.04 37.19 19.04 36.49 17.58 C33.69 12.73 30.25 9.91 25 8 C20.71 7.51 16.44 7.4 12.12 7.31 C10.96 7.28 9.79 7.24 8.59 7.21 C5.73 7.13 2.87 7.06 0 7 C-1.12 2.25 -1.12 2.25 0 0 Z " fill="#1A436B" transform="translate(241,175)"/>
<path d="M0 0 C-5.24 6.37 -11.02 12.14 -16.88 17.94 C-17.86 18.92 -18.84 19.9 -19.83 20.88 C-22.22 23.25 -24.61 25.63 -27 28 C-27.99 27.67 -28.98 27.34 -30 27 C-31.06 24.63 -31.91 22.4 -32.69 19.94 C-33.02 18.92 -33.02 18.92 -33.35 17.87 C-34.85 13.01 -35.79 9.03 -35 4 C-32.13 2.08 -31.24 1.71 -28.01 1.37 C-26.83 1.24 -26.83 1.24 -25.64 1.11 C-24.81 1.03 -23.98 0.96 -23.12 0.88 C-22.28 0.79 -21.43 0.71 -20.56 0.62 C-13.69 -0.03 -6.91 -0.22 0 0 Z " fill="#EA7822" transform="translate(338,269)"/>
<path d="M0 0 C3.63 1.62 4.77 2.66 7 6 C7.67 10.07 7.94 14.24 5.95 17.95 C3.64 20.76 1.68 22.8 -1.99 23.24 C-6.01 23.37 -8.38 23.36 -11.94 21.31 C-15.07 17.8 -15.85 15.21 -16.44 10.56 C-15.85 5.8 -14.35 4.35 -11 1 C-7.55 -0.72 -3.78 -0.37 0 0 Z " fill="#194168" transform="translate(336,298)"/>
<path d="M0 0 C2.81 1.79 4.51 3.02 6 6 C6.44 10.31 6.47 13.95 4.69 17.94 C2.01 21.21 0.35 21.96 -3.88 22.44 C-7.44 22.37 -7.96 22.03 -10.94 19.62 C-14.06 15.65 -14.33 13.2 -14.29 8.26 C-13.86 4.95 -12.39 3.25 -10 1 C-6.8 -0.6 -3.47 -0.5 0 0 Z " fill="#FAFBFC" transform="translate(193,288)"/>
<path d="M0 0 C2.64 0 5.28 0 8 0 C8 11.88 8 23.76 8 36 C5.36 36 2.72 36 0 36 C0 24.12 0 12.24 0 0 Z " fill="#244A75" transform="translate(236,226)"/>
<path d="M0 0 C2.38 0.94 2.38 0.94 3.75 2.5 C4.68 6.13 3.89 9.24 3.38 12.94 C-7.97 13.62 -19.25 14.09 -30.62 13.94 C-26.82 9.38 -22.88 5.09 -18.62 0.94 C-17.63 1.27 -16.64 1.6 -15.62 1.94 C-14.89 3.79 -14.89 3.79 -14.44 6 C-14.28 6.73 -14.12 7.47 -13.96 8.22 C-13.85 8.79 -13.74 9.35 -13.62 9.94 C-12.96 9.94 -12.31 9.94 -11.62 9.94 C-10.96 8.62 -10.31 7.3 -9.62 5.94 C-8.96 5.94 -8.31 5.94 -7.62 5.94 C-7.3 4.95 -6.96 3.96 -6.62 2.94 C-4.33 0.64 -3.29 -0.08 0 0 Z " fill="#E87123" transform="translate(343.625,205.0625)"/>
<path d="M0 0 C7 1 7 1 8.88 2.44 C11.7 6.36 11.46 10.31 11 15 C9.38 18.63 8.34 19.77 5 22 C3.35 22 1.7 22 0 22 C0 14.74 0 7.48 0 0 Z " fill="#FCFCFD" transform="translate(257,288)"/>
<path d="M0 0 C6.75 -0.12 6.75 -0.12 9 1 C9.19 3.88 9.19 3.88 9 7 C5.56 9.29 4.01 9.18 0 9 C0 6.03 0 3.06 0 0 Z " fill="#F1F3F6" transform="translate(117,302)"/>
<path d="M0 0 C4.95 0 9.9 0 15 0 C15 1.65 15 3.3 15 5 C10.05 5 5.1 5 0 5 C0 3.35 0 1.7 0 0 Z " fill="#184B77" transform="translate(345,170)"/>
<path d="M0 0 C3.38 -0.12 3.38 -0.12 7 0 C9 2 9 2 9.31 4.5 C9.16 5.74 9.16 5.74 9 7 C5.56 9.29 4.01 9.18 0 9 C0 6.03 0 3.06 0 0 Z " fill="#F1F3F6" transform="translate(259,247)"/>
<path d="M0 0 C3.38 -0.12 3.38 -0.12 7 0 C7.66 0.66 8.32 1.32 9 2 C8.67 5.3 8.38 6.62 6 9 C2.88 9.12 2.88 9.12 0 9 C0 6.03 0 3.06 0 0 Z " fill="#F5F7F8" transform="translate(213,247)"/>
<path d="M0 0 C5.75 -0.12 5.75 -0.12 8 1 C8.12 3.88 8.12 3.88 8 7 C6 9 6 9 2.88 9.12 C1.45 9.06 1.45 9.06 0 9 C0 6.03 0 3.06 0 0 Z " fill="#FBFBFC" transform="translate(149,302)"/>
<path d="M0 0 C5.75 -0.12 5.75 -0.12 8 1 C7.67 3.31 7.34 5.62 7 8 C4.69 8 2.38 8 0 8 C0 5.36 0 2.72 0 0 Z " fill="#F3F5F7" transform="translate(259,232)"/>
<path d="M0 0 C2 1 2 1 2.85 3.5 C3.11 4.51 3.36 5.52 3.62 6.56 C3.89 7.57 4.15 8.59 4.41 9.63 C4.61 10.41 4.8 11.19 5 12 C2.03 12 -0.94 12 -4 12 C-2.68 8.04 -1.36 4.08 0 0 Z " fill="#E2E7ED" transform="translate(182,236)"/>
<path d="M0 0 C2.88 -0.12 2.88 -0.12 6 0 C6.66 0.66 7.32 1.32 8 2 C7.44 6.56 7.44 6.56 6 8 C4 8.04 2 8.04 0 8 C0 5.36 0 2.72 0 0 Z " fill="#EFF1F5" transform="translate(117,287)"/>
<path d="M0 0 C2.88 -0.12 2.88 -0.12 6 0 C6.66 0.66 7.32 1.32 8 2 C7.44 6.56 7.44 6.56 6 8 C4 8.04 2 8.04 0 8 C0 5.36 0 2.72 0 0 Z " fill="#F7F8F9" transform="translate(213,232)"/>
<path d="M0 0 C2.62 0.38 2.62 0.38 5 1 C5.69 3.31 5.69 3.31 6 6 C4.81 7.88 4.81 7.88 3 9 C0.86 8.75 -0.46 8.54 -2 7 C-2.19 4.56 -2.19 4.56 -2 2 C-1.34 1.34 -0.68 0.68 0 0 Z " fill="#E8EBEF" transform="translate(330,305)"/>
<path d="M0 0 C0.66 0 1.32 0 2 0 C2.51 1.27 3 2.54 3.5 3.81 C3.92 4.87 3.92 4.87 4.34 5.96 C5 8 5 8 5 11 C2.36 11 -0.28 11 -3 11 C-2.45 7.05 -1.61 3.65 0 0 Z " fill="#EAEEF2" transform="translate(86,292)"/>
<path d="M0 0 C2.31 0.33 4.62 0.66 7 1 C7.04 3 7.04 5 7 7 C6 8 6 8 2.94 8.06 C1.97 8.04 1 8.02 0 8 C0 5.36 0 2.72 0 0 Z " fill="#F7F8FA" transform="translate(149,287)"/>
<path d="M0 0 C4.36 1.16 6.65 2.08 9 6 C8.67 6.66 8.34 7.32 8 8 C6.68 7.34 5.36 6.68 4 6 C4.33 7.65 4.66 9.3 5 11 C3.05 10.29 3.05 10.29 1 9 C0.39 6.84 0.39 6.84 0.25 4.38 C0.19 3.56 0.14 2.74 0.08 1.9 C0.05 1.27 0.03 0.65 0 0 Z " fill="#2C9AC4" transform="translate(324,189)"/>
<path d="M0 0 C4.29 0.48 6.27 1.66 9 5 C9 5.66 9 6.32 9 7 C7.68 6.67 6.36 6.34 5 6 C5 7.32 5 8.64 5 10 C4.01 9.67 3.02 9.34 2 9 C1.27 6.93 1.27 6.93 0.81 4.44 C0.65 3.61 0.5 2.78 0.33 1.93 C0.17 0.98 0.17 0.98 0 0 Z " fill="#349FBB" transform="translate(305,190)"/>
<path d="M0 0 C2.31 0 4.62 0 7 0 C7 0.99 7 1.98 7 3 C5.68 2.34 4.36 1.68 3 1 C3.33 2.65 3.66 4.3 4 6 C2.68 5.34 1.36 4.68 0 4 C0 2.68 0 1.36 0 0 Z " fill="#3CA6AF" transform="translate(325,194)"/>
</svg>
