<?xml version="1.0" standalone="no"?>
<!DOCTYPE svg PUBLIC "-//W3C//DTD SVG 20010904//EN"
 "http://www.w3.org/TR/2001/REC-SVG-20010904/DTD/svg10.dtd">
<svg version="1.0" xmlns="http://www.w3.org/2000/svg"
 width="250.000000pt" height="116.000000pt" viewBox="0 0 250.000000 116.000000"
 preserveAspectRatio="xMidYMid meet">

<g transform="translate(0.000000,116.000000) scale(0.100000,-0.100000)"
fill="#000000" stroke="none">
<path d="M0 580 l0 -580 1250 0 1250 0 0 580 0 580 -1250 0 -1250 0 0 -580z
m1045 440 c17 -19 17 -21 -1 -41 -17 -19 -27 -21 -87 -16 -83 5 -89 1 -112
-90 -29 -115 -39 -137 -69 -152 -24 -11 -30 -11 -43 2 -14 13 -13 23 7 91 19
63 21 78 10 91 -9 11 -22 14 -38 10 -13 -3 -79 -10 -147 -15 -75 -5 -134 -14
-153 -24 -27 -14 -52 -52 -66 -101 -3 -11 -4 6 -2 37 2 42 10 69 32 105 52 84
66 89 276 97 100 4 206 11 233 15 95 15 140 13 160 -9z m-882 -17 c-7 -2 -19
-2 -25 0 -7 3 -2 5 12 5 14 0 19 -2 13 -5z m234 1 c-3 -3 -12 -4 -19 -1 -8 3
-5 6 6 6 11 1 17 -2 13 -5z m600 -75 c20 -17 16 -56 -8 -73 l-21 -14 27 -18
c23 -15 24 -19 11 -32 -19 -19 -43 -9 -58 23 -9 20 -8 28 6 44 18 20 19 68 2
64 -5 -1 -17 -27 -27 -58 -17 -56 -34 -85 -50 -85 -14 0 -10 36 10 90 11 27
15 50 10 50 -16 0 -9 18 9 23 24 7 72 -1 89 -14z m173 1 c16 -34 47 -140 42
-145 -13 -12 -41 -3 -47 15 -5 14 -15 20 -38 20 -21 0 -36 -7 -45 -20 -7 -11
-19 -20 -26 -20 -23 0 -13 47 16 73 14 13 32 40 39 61 10 27 18 36 33 34 10
-2 22 -10 26 -18z m170 -7 c6 -16 14 -37 19 -48 l9 -20 7 20 c22 62 29 75 41
75 18 0 18 4 -12 -82 -39 -110 -45 -111 -85 -13 l-17 40 -12 -42 c-12 -40 -44
-82 -55 -71 -2 2 9 37 26 76 16 40 27 77 24 82 -3 6 5 10 20 10 19 0 28 -7 35
-27z m215 -2 c0 -13 -6 -26 -12 -28 -8 -3 -13 4 -13 16 0 12 -4 21 -10 21 -18
0 -11 -36 10 -55 29 -26 23 -75 -9 -92 -20 -9 -30 -9 -53 3 -31 16 -35 26 -14
43 12 10 17 8 26 -8 11 -22 30 -28 30 -10 0 6 -11 24 -25 41 -14 16 -25 37
-25 45 0 29 32 54 64 51 25 -2 31 -8 31 -27z m-1095 -322 c77 -12 136 -37 208
-86 l52 -36 0 -60 c0 -71 21 -120 64 -146 94 -58 202 -19 231 84 12 39 20 52
31 48 17 -6 17 -5 4 -39 -6 -15 -8 -34 -6 -41 8 -19 43 0 52 29 6 21 7 21 20
-4 20 -37 54 -47 72 -19 18 27 35 27 27 1 -8 -27 16 -27 40 0 23 26 72 27 79
2 5 -15 18 -19 72 -20 37 0 77 3 89 8 32 12 65 50 65 74 1 31 21 52 59 59 33
7 34 7 28 -25 -3 -18 -11 -46 -17 -63 -12 -30 -12 -30 -23 -7 -13 28 -32 23
-32 -9 0 -17 8 -26 29 -34 25 -8 31 -6 52 18 12 15 31 51 40 81 14 45 21 54
40 54 13 0 24 -4 24 -8 0 -4 -13 -40 -29 -79 -21 -53 -25 -71 -15 -71 16 0 40
35 49 73 8 30 25 37 25 10 0 -27 39 -85 51 -77 8 4 9 -3 6 -22 -3 -16 -9 -52
-12 -80 l-7 -52 34 -10 c58 -18 102 -22 143 -12 50 11 56 6 15 -15 -34 -18
-63 -17 -162 5 -53 12 -59 11 -114 -14 -84 -39 -127 -42 -215 -17 -90 25 -171
27 -230 5 -71 -26 -165 -24 -219 5 -60 33 -148 34 -207 3 -65 -34 -110 -37
-201 -13 -103 27 -172 27 -247 0 -102 -36 -231 -14 -289 50 -24 27 -22 26 38
-4 33 -17 66 -25 98 -25 l49 0 -6 38 c-20 115 -75 229 -150 306 -48 50 -50 55
-31 61 41 13 270 18 310 6 52 -14 59 -5 12 14 -56 23 -216 30 -305 12 -70 -14
-76 -14 -108 5 -19 11 -32 22 -30 24 21 21 342 30 447 13z m363 -159 c31 -11
71 -20 88 -20 30 0 31 -1 25 -32 -11 -53 -32 -78 -69 -78 -42 0 -75 24 -93 66
-12 29 -19 84 -11 84 1 0 28 -9 60 -20z m602 -9 c-3 -10 -12 -38 -19 -62 l-13
-44 -18 40 -17 39 27 23 c32 28 48 30 40 4z m85 0 c16 -30 12 -50 -15 -76 -28
-29 -49 -33 -41 -7 3 9 10 36 16 60 12 46 24 53 40 23z m647 -207 c-3 -3 -12
-4 -19 -1 -8 3 -5 6 6 6 11 1 17 -2 13 -5z m-1056 -164 c94 -25 148 -25 227 0
83 26 115 25 209 -5 94 -30 156 -32 206 -6 30 15 35 16 25 4 -37 -45 -118 -54
-218 -23 -82 25 -142 25 -222 0 -80 -25 -135 -25 -223 0 -38 11 -83 20 -100
20 -17 0 -62 -9 -100 -20 -89 -25 -166 -25 -247 0 -69 22 -161 26 -204 10 -41
-16 -42 -2 -1 15 50 21 132 19 207 -5 83 -26 142 -25 231 5 91 30 115 30 210
5z"/>
<path d="M1122 875 c-10 -22 -9 -25 7 -25 14 0 17 6 13 25 -2 14 -5 25 -7 25
-1 0 -7 -11 -13 -25z"/>
<path d="M419 513 c-1 -5 0 -21 0 -38 1 -16 -3 -44 -8 -61 -5 -19 -5 -36 0
-41 13 -13 -1 -103 -16 -103 -7 0 -20 10 -28 22 -13 19 -16 20 -16 6 -1 -17
13 -35 56 -69 18 -15 22 -14 55 15 20 17 39 42 42 56 l7 25 -23 -27 c-13 -16
-29 -28 -35 -28 -13 0 -24 91 -12 103 4 5 2 25 -3 45 -6 20 -8 51 -5 69 3 18
2 33 -4 33 -5 0 -9 -3 -10 -7z"/>
<path d="M623 269 c-18 -5 -33 -12 -33 -15 0 -3 9 -2 21 1 43 14 89 6 141 -23
82 -46 104 -48 204 -13 98 34 147 38 202 16 33 -13 35 -13 17 0 -11 9 -36 21
-57 27 -40 12 -67 7 -170 -31 -80 -29 -114 -27 -191 14 -69 37 -82 39 -134 24z"/>
</g>
</svg>
